<?xml version="1.0" encoding="UTF-8" standalone="no"?>
<svg
   width="105.579mm"
   height="88.409218mm"
   viewBox="0 0 105.579 88.409218"
   version="1.1"
   id="svg8"
   inkscape:version="1.1 (1:1.1+202105261517+ce6663b3b7)"
   sodipodi:docname="astrogen_logo.svg"
   inkscape:export-filename="/home/mlares/all/Research/projects/CCyG/astrogen/docs/source/img/astrogen_logo.png"
   inkscape:export-xdpi="200"
   inkscape:export-ydpi="200"
   xmlns:inkscape="http://www.inkscape.org/namespaces/inkscape"
   xmlns:sodipodi="http://sodipodi.sourceforge.net/DTD/sodipodi-0.dtd"
   xmlns="http://www.w3.org/2000/svg"
   xmlns:svg="http://www.w3.org/2000/svg"
   xmlns:rdf="http://www.w3.org/1999/02/22-rdf-syntax-ns#"
   xmlns:cc="http://creativecommons.org/ns#"
   xmlns:dc="http://purl.org/dc/elements/1.1/">
  <defs
     id="defs2" />
  <sodipodi:namedview
     id="base"
     pagecolor="#ffffff"
     bordercolor="#666666"
     borderopacity="1.0"
     inkscape:pageopacity="0.0"
     inkscape:pageshadow="2"
     inkscape:zoom="1"
     inkscape:cx="251"
     inkscape:cy="62.5"
     inkscape:document-units="mm"
     inkscape:current-layer="layer1"
     inkscape:document-rotation="0"
     showgrid="false"
     inkscape:window-width="1920"
     inkscape:window-height="1055"
     inkscape:window-x="0"
     inkscape:window-y="0"
     inkscape:window-maximized="1"
     fit-margin-top="2"
     fit-margin-left="2"
     fit-margin-right="2"
     fit-margin-bottom="2"
     showguides="true"
     inkscape:guide-bbox="true"
     inkscape:pagecheckerboard="0" />
  <metadata
     id="metadata5">
    <rdf:RDF>
      <cc:Work
         rdf:about="">
        <dc:format>image/svg+xml</dc:format>
        <dc:type
           rdf:resource="http://purl.org/dc/dcmitype/StillImage" />
      </cc:Work>
    </rdf:RDF>
  </metadata>
  <g
     inkscape:label="Layer 1"
     inkscape:groupmode="layer"
     id="layer1"
     transform="translate(-19.161415,-332.6762)">
    <path
       style="fill:none;fill-opacity:0.842943;stroke:#000000;stroke-width:0.766939;stroke-linecap:round;stroke-miterlimit:4;stroke-dasharray:none;stroke-dashoffset:0;stroke-opacity:0.342425"
       id="path1015"
       sodipodi:type="arc"
       sodipodi:cx="71.195099"
       sodipodi:cy="370.13745"
       sodipodi:rx="35.077492"
       sodipodi:ry="35.077492"
       sodipodi:start="3.890156"
       sodipodi:end="5.7663772"
       sodipodi:arc-type="arc"
       d="M 45.494964,346.26417 A 35.077492,35.077492 0 0 1 75.250705,335.2952 35.077492,35.077492 0 0 1 101.6915,352.8054"
       sodipodi:open="true"
       inkscape:export-xdpi="599.64624"
       inkscape:export-ydpi="599.64624" />
    <rect
       style="fill:#00aad4;fill-opacity:0.842943;stroke:none;stroke-width:13.1933;stroke-miterlimit:4;stroke-dasharray:none;stroke-dashoffset:0;stroke-opacity:0.342425"
       id="rect1017"
       width="45.035522"
       height="10.487595"
       x="49.433155"
       y="352.18814"
       inkscape:export-xdpi="599.64624"
       inkscape:export-ydpi="599.64624" />
    <rect
       style="fill:#00aad4;fill-opacity:0.842943;stroke:none;stroke-width:13.0249;stroke-miterlimit:4;stroke-dasharray:none;stroke-dashoffset:0;stroke-opacity:0.342425"
       id="rect1019"
       width="45.035522"
       height="10.221631"
       x="49.433155"
       y="378.19156"
       inkscape:export-xdpi="599.64624"
       inkscape:export-ydpi="599.64624" />
    <path
       id="path1023"
       style="fill:#000000;fill-opacity:0.341176;stroke:none;stroke-width:14.7567;stroke-miterlimit:4;stroke-dasharray:none;stroke-dashoffset:0;stroke-opacity:0.342425"
       d="m 122.74042,353.35739 -28.271739,35.05575 -13.186099,-9.72311 28.271738,-35.05574 9.73239,-0.21969 z"
       sodipodi:nodetypes="cccccc"
       inkscape:export-xdpi="599.64624"
       inkscape:export-ydpi="599.64624" />
    <path
       style="fill:none;fill-opacity:0.842943;stroke:#000000;stroke-width:0.766939;stroke-miterlimit:4;stroke-dasharray:none;stroke-dashoffset:0;stroke-opacity:0.342425"
       id="path1025"
       sodipodi:type="arc"
       sodipodi:cx="71.195099"
       sodipodi:cy="370.13745"
       sodipodi:rx="35.077492"
       sodipodi:ry="35.077492"
       sodipodi:start="0.66493132"
       sodipodi:end="2.5973168"
       sodipodi:arc-type="arc"
       d="M 98.799652,391.78044 A 35.077492,35.077492 0 0 1 69.080237,405.15113 35.077492,35.077492 0 0 1 41.186218,388.30053"
       sodipodi:open="true"
       inkscape:export-xdpi="599.64624"
       inkscape:export-ydpi="599.64624" />
    <path
       id="path1031"
       style="fill:#000000;fill-opacity:0.341176;stroke:none;stroke-width:14.7567;stroke-miterlimit:4;stroke-dasharray:none;stroke-dashoffset:0;stroke-opacity:0.342425"
       d="m 21.161415,387.24388 28.271741,-35.05575 13.1861,9.7231 -28.271742,35.05575 -3.78603,-8.69984 z"
       sodipodi:nodetypes="cccccc"
       inkscape:export-xdpi="599.64624"
       inkscape:export-ydpi="599.64624" />
    <path
       style="fill:none;fill-opacity:0.842943;stroke:#ffffff;stroke-width:0.766939;stroke-miterlimit:4;stroke-dasharray:none;stroke-dashoffset:0;stroke-opacity:0.998659"
       id="path1027"
       sodipodi:type="arc"
       sodipodi:cx="71.195099"
       sodipodi:cy="370.13745"
       sodipodi:rx="35.077492"
       sodipodi:ry="35.077492"
       sodipodi:start="2.5988066"
       sodipodi:end="3.4682368"
       sodipodi:arc-type="arc"
       d="M 41.159192,388.2558 A 35.077492,35.077492 0 0 1 37.972349,358.88226"
       sodipodi:open="true"
       inkscape:export-xdpi="599.64624"
       inkscape:export-ydpi="599.64624" />
    <g
       id="g858"
       transform="matrix(2.8093008,0,0,2.8093008,-38.659045,-608.41882)">
      <g
         aria-label="ASTR  GEN"
         id="text887"
         style="font-style:normal;font-weight:normal;font-size:4.94569px;line-height:1.25;font-family:sans-serif;fill:#000000;fill-opacity:1;stroke:none;stroke-width:0.123642"
         transform="translate(-1.6140774,-7.4319097)">
        <path
           d="m 28.584133,372.18786 -0.328425,0.9249 h -0.514371 l 1.352957,-3.5082 -0.255701,-0.0978 0.555735,5.6e-4 h 0.276504 l 1.374072,3.60542 h -0.507127 l -0.328425,-0.9249 -0.152137,-0.4057 -0.664095,-1.79426 -0.661679,1.79426"
           style="stroke-width:0.123642"
           id="path891"
           sodipodi:nodetypes="ccccccccccccc" />
        <path
           d="m 33.382541,369.67559 v 0.45512 c -0.177116,-0.0847 -0.344223,-0.14785 -0.501318,-0.18943 -0.157095,-0.0416 -0.308799,-0.0624 -0.455114,-0.0624 -0.254124,0 -0.450492,0.0493 -0.589106,0.14786 -0.137073,0.0986 -0.20561,0.23873 -0.20561,0.42046 0,0.15248 0.04543,0.26798 0.136303,0.34653 0.09241,0.077 0.266446,0.13939 0.52211,0.18714 l 0.281847,0.0578 c 0.348074,0.0662 0.604508,0.18327 0.769304,0.35115 0.166336,0.16633 0.249504,0.38966 0.249504,0.66997 0,0.3342 -0.11243,0.58757 -0.337293,0.76006 -0.223321,0.1725 -0.551372,0.25874 -0.984154,0.25874 -0.78112,-0.0452 -0.874473,-0.0569 -1.227072,-0.1436 l -0.272568,-0.66092 c 0.4699,0.26711 0.706798,0.37309 1.499649,0.42556 0.266446,0 0.472055,-0.0523 0.616829,-0.1571 0.144774,-0.10472 0.217161,-0.25412 0.217161,-0.44818 0,-0.16942 -0.05237,-0.30188 -0.157095,-0.39736 -0.103189,-0.0955 -0.273376,-0.1671 -0.510559,-0.21485 l -0.284157,-0.0555 c -0.348073,-0.0694 -0.599887,-0.17789 -0.755443,-0.32574 -0.155554,-0.14786 -0.233332,-0.35347 -0.233332,-0.61683 0,-0.30495 0.107041,-0.54522 0.321121,-0.72079 0.215621,-0.17558 0.512099,-0.26337 0.889435,-0.26337 0.161716,0 0.326511,0.0146 0.494388,0.0439 0.167876,0.0293 0.193496,0.027 0.515179,0.13167 z"
           style="stroke-width:0.118283"
           id="path893"
           sodipodi:nodetypes="ccsscsccccscccccsscccsscsscc" />
        <path
           d="m 33.500584,369.50734 h 3.050003 v 0.41053 h -1.27989 v 3.19489 h -0.490222 v -3.19489 h -1.279891 z"
           style="stroke-width:0.123642"
           id="path895"
           sodipodi:nodetypes="ccccccccc" />
        <path
           d="m 38.354074,371.42234 c 0.104646,0.0354 0.206071,0.11107 0.304276,0.227 0.09982,0.11591 0.199631,0.2753 0.299446,0.47815 l 0.495052,0.98527 h -0.52403 l -0.461244,-0.9249 c -0.119134,-0.24149 -0.235049,-0.40167 -0.347744,-0.48056 -0.111084,-0.0789 -0.263222,-0.11833 -0.456414,-0.11833 h -0.531275 v 1.52379 h -0.487807 v -3.60542 h 1.101189 c 0.412141,0 0.719637,0.0861 0.922487,0.25839 0.202851,0.17226 0.304276,0.43226 0.304276,0.78001 0,0.227 -0.05313,0.41536 -0.159383,0.56508 -0.104645,0.14973 -0.257588,0.25357 -0.458829,0.31152 z m -1.221933,-1.51413 v 1.27989 h 0.613382 c 0.235049,0 0.412141,-0.0539 0.531275,-0.1618 0.120744,-0.10947 0.181116,-0.26966 0.181116,-0.48056 0,-0.2109 -0.06037,-0.36948 -0.181116,-0.47574 -0.119134,-0.10786 -0.296226,-0.16179 -0.531275,-0.16179 z"
           style="stroke-width:0.123642"
           id="path897"
           sodipodi:nodetypes="cccccccsccccsssccccscscsc" />
        <path
           d="m 46.095497,372.59839 v -1.20401 h -0.796913 v -0.40087 h 1.27989 v 1.78358 c -0.188362,0.13363 -0.396042,0.23505 -0.623041,0.30428 -0.227,0.0676 -0.469293,0.10142 -0.726881,0.10142 -0.563474,0 -1.004594,-0.16421 -1.323359,-0.49263 -0.317155,-0.33003 -0.475732,-0.78886 -0.475732,-1.37649 0,-0.58923 0.158577,-1.04806 0.475732,-1.37648 0.318765,-0.33004 0.759885,-0.49506 1.323359,-0.49506 0.235049,0 0.458024,0.029 0.668924,0.0869 0.21251,0.0579 0.408116,0.14326 0.586818,0.25598 v 0.5192 c -0.180312,-0.15295 -0.371894,-0.26806 -0.574744,-0.34533 -0.202851,-0.0773 -0.416166,-0.11592 -0.639945,-0.11592 -0.44112,0 -0.772764,0.12316 -0.994934,0.36948 -0.22056,0.24632 -0.330839,0.61338 -0.330839,1.10119 0,0.4862 0.110279,0.85246 0.330839,1.09877 0.22217,0.24632 0.553814,0.36948 0.994934,0.36948 0.172262,0 0.32601,-0.0145 0.461244,-0.0435 0.135233,-0.0306 0.256782,-0.0773 0.364648,-0.14006 z"
           style="stroke-width:0.123642"
           id="path899"
           sodipodi:nodetypes="cccccccscssscccsscscsccc" />
        <path
           d="m 47.343924,369.50734 h 2.279654 v 0.41053 h -1.791847 v 1.06738 h 1.716986 v 0.41053 h -1.716986 v 1.30645 h 1.835315 v 0.41053 h -2.323122 z"
           style="stroke-width:0.123642"
           id="path901"
           sodipodi:nodetypes="ccccccccccccc" />
        <path
           d="m 50.272986,369.50734 h 0.656849 l 1.598656,3.01619 v -3.01619 h 0.473318 v 3.60542 h -0.65685 l -1.598655,-3.01619 v 3.01619 h -0.473318 z"
           style="stroke-width:0.123642"
           id="path903"
           sodipodi:nodetypes="ccccccccccc" />
      </g>
      <circle
         style="fill:#ffffff;fill-opacity:0.341176;stroke:#000000;stroke-width:0.47621;stroke-linecap:round;stroke-miterlimit:4;stroke-dasharray:none;stroke-opacity:0.998659"
         id="path889"
         cx="39.476089"
         cy="363.87073"
         r="1.6385105" />
    </g>
  </g>
</svg>
