<?xml version="1.0" encoding="UTF-8" standalone="no"?>
<svg
   xmlns:dc="http://purl.org/dc/elements/1.1/"
   xmlns:cc="http://creativecommons.org/ns#"
   xmlns:rdf="http://www.w3.org/1999/02/22-rdf-syntax-ns#"
   xmlns:svg="http://www.w3.org/2000/svg"
   xmlns="http://www.w3.org/2000/svg"
   xmlns:sodipodi="http://sodipodi.sourceforge.net/DTD/sodipodi-0.dtd"
   xmlns:inkscape="http://www.inkscape.org/namespaces/inkscape"
   width="210mm"
   height="297mm"
   viewBox="0 0 210 297"
   version="1.1"
   id="svg8"
   inkscape:version="1.0.2 (e86c870879, 2021-01-15)"
   sodipodi:docname="astrogen_logo.svg">
  <defs
     id="defs2" />
  <sodipodi:namedview
     id="base"
     pagecolor="#ffffff"
     bordercolor="#666666"
     borderopacity="1.0"
     inkscape:pageopacity="0.0"
     inkscape:pageshadow="2"
     inkscape:zoom="4"
     inkscape:cx="163.15676"
     inkscape:cy="1315.6306"
     inkscape:document-units="mm"
     inkscape:current-layer="layer1"
     inkscape:document-rotation="0"
     showgrid="false"
     inkscape:window-width="1920"
     inkscape:window-height="1080"
     inkscape:window-x="0"
     inkscape:window-y="0"
     inkscape:window-maximized="1" />
  <metadata
     id="metadata5">
    <rdf:RDF>
      <cc:Work
         rdf:about="">
        <dc:format>image/svg+xml</dc:format>
        <dc:type
           rdf:resource="http://purl.org/dc/dcmitype/StillImage" />
        <dc:title></dc:title>
      </cc:Work>
    </rdf:RDF>
  </metadata>
  <g
     inkscape:label="Layer 1"
     inkscape:groupmode="layer"
     id="layer1">
    <circle
       style="fill:none;fill-opacity:0.842943;stroke:#000000;stroke-width:3.765;stroke-miterlimit:4;stroke-dasharray:none;stroke-dashoffset:0;stroke-opacity:0.342425"
       id="path10"
       cx="47.317795"
       cy="93.57032"
       r="11.171732" />
    <circle
       style="fill:none;fill-opacity:0.842943;stroke:#000000;stroke-width:3.765;stroke-miterlimit:4;stroke-dasharray:none;stroke-dashoffset:0;stroke-opacity:0.342425"
       id="circle835"
       cx="69.561989"
       cy="93.57032"
       r="11.171732" />
    <circle
       style="fill:none;fill-opacity:0.842943;stroke:#000000;stroke-width:3.765;stroke-miterlimit:4;stroke-dasharray:none;stroke-dashoffset:0;stroke-opacity:0.342425"
       id="circle837"
       cx="91.826538"
       cy="93.57032"
       r="11.171732" />
    <rect
       style="fill:#00aad4;fill-opacity:0.842943;stroke:none;stroke-width:5.25279;stroke-miterlimit:4;stroke-dasharray:none;stroke-dashoffset:0;stroke-opacity:0.342425"
       id="rect839"
       width="16.030865"
       height="4.6703329"
       x="61.527912"
       y="87.330872" />
    <rect
       style="fill:#00aad4;fill-opacity:0.842943;stroke:none;stroke-width:5.25279;stroke-miterlimit:4;stroke-dasharray:none;stroke-dashoffset:0;stroke-opacity:0.342425"
       id="rect841"
       width="16.030865"
       height="4.6703329"
       x="61.527912"
       y="95.015259" />
    <rect
       style="fill:#000000;fill-opacity:0.341176;stroke:none;stroke-width:5.25279;stroke-miterlimit:4;stroke-dasharray:none;stroke-dashoffset:0;stroke-opacity:0.342425"
       id="rect843"
       width="16.030865"
       height="4.6703329"
       x="39.563732"
       y="108.38598" />
    <path
       id="rect847"
       style="fill:#000000;fill-opacity:0.341176;stroke:none;stroke-width:5.25279;stroke-miterlimit:4;stroke-dasharray:none;stroke-dashoffset:0;stroke-opacity:0.342425"
       d="m 110.12377,74.740519 v 16.030865 h -4.67034 V 74.740519 Z m -16.030871,0 h 16.030861 v 4.670333 H 94.092899 Z" />
    <rect
       style="fill:#000000;fill-opacity:0.341176;stroke:none;stroke-width:2.77197;stroke-miterlimit:4;stroke-dasharray:none;stroke-dashoffset:0;stroke-opacity:0.342425"
       id="rect852"
       width="4.4643087"
       height="4.6703329"
       x="45.09388"
       y="113.42662" />
    <circle
       style="fill:none;fill-opacity:0.842943;stroke:#000000;stroke-width:3.765;stroke-miterlimit:4;stroke-dasharray:none;stroke-dashoffset:0;stroke-opacity:0.342425"
       id="circle856"
       cx="69.561989"
       cy="152.9657"
       r="11.171732" />
    <rect
       style="fill:#00aad4;fill-opacity:0.842943;stroke:none;stroke-width:5.25279;stroke-miterlimit:4;stroke-dasharray:none;stroke-dashoffset:0;stroke-opacity:0.342425"
       id="rect860"
       width="16.030865"
       height="4.6703329"
       x="61.527912"
       y="146.72626" />
    <rect
       style="fill:#00aad4;fill-opacity:0.842943;stroke:none;stroke-width:5.25279;stroke-miterlimit:4;stroke-dasharray:none;stroke-dashoffset:0;stroke-opacity:0.342425"
       id="rect862"
       width="16.030865"
       height="4.6703329"
       x="61.527912"
       y="154.41064" />
    <rect
       style="fill:#000000;fill-opacity:0.341176;stroke:none;stroke-width:5.25279;stroke-miterlimit:4;stroke-dasharray:none;stroke-dashoffset:0;stroke-opacity:0.342425"
       id="rect864"
       width="16.030865"
       height="4.6703329"
       x="61.487553"
       y="167.3938" />
    <path
       id="path866"
       style="fill:#000000;fill-opacity:0.341176;stroke:none;stroke-width:5.25279;stroke-miterlimit:4;stroke-dasharray:none;stroke-dashoffset:0;stroke-opacity:0.342425"
       d="m 90.89787,133.85412 v 16.03087 h -4.67034 v -16.03087 z m -16.030871,0 H 90.89786 v 4.67034 H 74.866999 Z" />
    <circle
       style="fill:none;fill-opacity:0.842943;stroke:#000000;stroke-width:0.865;stroke-miterlimit:4;stroke-dasharray:none;stroke-dashoffset:0;stroke-opacity:0.342425"
       id="circle870"
       cx="96.908768"
       cy="201.05112"
       r="11.171732" />
    <rect
       style="fill:#00aad4;fill-opacity:0.842943;stroke:none;stroke-width:5.25279;stroke-miterlimit:4;stroke-dasharray:none;stroke-dashoffset:0;stroke-opacity:0.342425"
       id="rect872"
       width="16.030865"
       height="4.6703329"
       x="88.874695"
       y="194.81168" />
    <rect
       style="fill:#00aad4;fill-opacity:0.842943;stroke:none;stroke-width:5.25279;stroke-miterlimit:4;stroke-dasharray:none;stroke-dashoffset:0;stroke-opacity:0.342425"
       id="rect874"
       width="16.030865"
       height="4.6703329"
       x="88.874695"
       y="202.50685" />
    <rect
       style="fill:#000000;fill-opacity:0.341176;stroke:none;stroke-width:5.25279;stroke-miterlimit:4;stroke-dasharray:none;stroke-dashoffset:0;stroke-opacity:0.342425"
       id="rect876"
       width="16.030865"
       height="4.6703329"
       x="88.874695"
       y="210.20204" />
    <path
       id="path878"
       style="fill:#000000;fill-opacity:0.341176;stroke:none;stroke-width:5.25279;stroke-miterlimit:4;stroke-dasharray:none;stroke-dashoffset:0;stroke-opacity:0.342425"
       d="m 112.36712,185.66587 v 16.03087 h -4.67034 v -16.03087 z m -16.030861,0 h 16.030851 v 4.67034 H 96.336259 Z" />
    <circle
       style="fill:none;fill-opacity:0.842943;stroke:#000000;stroke-width:0.865;stroke-miterlimit:4;stroke-dasharray:none;stroke-dashoffset:0;stroke-opacity:0.342425"
       id="circle880"
       cx="140.13786"
       cy="201.52277"
       r="11.171732" />
    <rect
       style="fill:#00aad4;fill-opacity:0.842943;stroke:none;stroke-width:5.25279;stroke-miterlimit:4;stroke-dasharray:none;stroke-dashoffset:0;stroke-opacity:0.342425"
       id="rect882"
       width="16.030865"
       height="4.6703329"
       x="132.10379"
       y="195.28333" />
    <rect
       style="fill:#00aad4;fill-opacity:0.842943;stroke:none;stroke-width:5.25279;stroke-miterlimit:4;stroke-dasharray:none;stroke-dashoffset:0;stroke-opacity:0.342425"
       id="rect884"
       width="16.030865"
       height="4.6703329"
       x="132.10379"
       y="202.9785" />
    <rect
       style="fill:#000000;fill-opacity:0.341176;stroke:none;stroke-width:5.25279;stroke-miterlimit:4;stroke-dasharray:none;stroke-dashoffset:0;stroke-opacity:0.342425"
       id="rect886"
       width="16.030865"
       height="4.6703329"
       x="212.32562"
       y="-142.66646"
       transform="rotate(90)" />
    <path
       id="path888"
       style="fill:#000000;fill-opacity:0.341176;stroke:none;stroke-width:5.25279;stroke-miterlimit:4;stroke-dasharray:none;stroke-dashoffset:0;stroke-opacity:0.342425"
       d="m 155.59622,186.13751 v 16.03087 h -4.67034 v -16.03087 z m -16.03086,0 h 16.03085 v 4.67034 h -16.03085 z" />
    <circle
       style="fill:none;fill-opacity:0.842943;stroke:#000000;stroke-width:0.865;stroke-miterlimit:4;stroke-dasharray:none;stroke-dashoffset:0;stroke-opacity:0.342425"
       id="circle890"
       cx="111.562"
       cy="261.03482"
       r="11.171732" />
    <rect
       style="fill:#00aad4;fill-opacity:0.842943;stroke:none;stroke-width:5.25279;stroke-miterlimit:4;stroke-dasharray:none;stroke-dashoffset:0;stroke-opacity:0.342425"
       id="rect892"
       width="16.030865"
       height="4.6703329"
       x="103.52792"
       y="254.79538" />
    <rect
       style="fill:#00aad4;fill-opacity:0.842943;stroke:none;stroke-width:5.25279;stroke-miterlimit:4;stroke-dasharray:none;stroke-dashoffset:0;stroke-opacity:0.342425"
       id="rect894"
       width="16.030865"
       height="4.6703329"
       x="103.52792"
       y="262.49057" />
    <rect
       style="fill:#000000;fill-opacity:0.341176;stroke:none;stroke-width:5.25279;stroke-miterlimit:4;stroke-dasharray:none;stroke-dashoffset:0;stroke-opacity:0.342425"
       id="rect896"
       width="16.030865"
       height="4.6703329"
       x="81.221992"
       y="-267.42822"
       transform="rotate(140.71013)" />
    <path
       id="rect908"
       style="fill:#000000;fill-opacity:0.341176;stroke:none;stroke-width:5.25279;stroke-miterlimit:4;stroke-dasharray:none;stroke-dashoffset:0;stroke-opacity:0.342425"
       d="m 131.96591,257.00945 -12.40712,10.15145 -2.95746,-3.61461 12.40712,-10.15145 2.99735,0.007 z"
       sodipodi:nodetypes="cccccc" />
    <path
       style="fill:none;stroke:#ffffff;stroke-width:0.264583px;stroke-linecap:butt;stroke-linejoin:miter;stroke-opacity:1"
       d="m 91.938955,259.02665 8.822755,10.83962"
       id="path922" />
    <circle
       style="fill:none;fill-opacity:0.842943;stroke:#000000;stroke-width:0.865;stroke-miterlimit:4;stroke-dasharray:none;stroke-dashoffset:0;stroke-opacity:0.342425"
       id="circle924"
       cx="106.67117"
       cy="311.73099"
       r="11.171732" />
    <rect
       style="fill:#00aad4;fill-opacity:0.842943;stroke:none;stroke-width:4.69629;stroke-miterlimit:4;stroke-dasharray:none;stroke-dashoffset:0;stroke-opacity:0.342425"
       id="rect926"
       width="16.030865"
       height="3.7331691"
       x="98.637093"
       y="305.49155" />
    <rect
       style="fill:#00aad4;fill-opacity:0.842943;stroke:none;stroke-width:4.63635;stroke-miterlimit:4;stroke-dasharray:none;stroke-dashoffset:0;stroke-opacity:0.342425"
       id="rect928"
       width="16.030865"
       height="3.6384964"
       x="98.637093"
       y="314.21857" />
    <rect
       style="fill:#000000;fill-opacity:0.341176;stroke:none;stroke-width:5.25279;stroke-miterlimit:4;stroke-dasharray:none;stroke-dashoffset:0;stroke-opacity:0.342425"
       id="rect930"
       width="16.030865"
       height="4.6703329"
       x="117.11028"
       y="-303.56754"
       transform="rotate(140.71013)" />
    <path
       id="path932"
       style="fill:#000000;fill-opacity:0.341176;stroke:none;stroke-width:5.25279;stroke-miterlimit:4;stroke-dasharray:none;stroke-dashoffset:0;stroke-opacity:0.342425"
       d="m 127.07508,307.70559 -12.40712,10.15145 -2.95746,-3.61461 12.40712,-10.15145 2.99735,0.007 z"
       sodipodi:nodetypes="cccccc" />
    <path
       style="fill:none;stroke:#ffffff;stroke-width:0.264583px;stroke-linecap:butt;stroke-linejoin:miter;stroke-opacity:1"
       d="m 87.048125,309.72279 8.822755,10.83962"
       id="path934" />
    <rect
       style="fill:#00aad4;fill-opacity:0.842943;stroke:none;stroke-width:4.69629;stroke-miterlimit:4;stroke-dasharray:none;stroke-dashoffset:0;stroke-opacity:0.342425"
       id="rect938"
       width="16.030865"
       height="3.7331691"
       x="83.936897"
       y="337.29572" />
    <rect
       style="fill:#00aad4;fill-opacity:0.842943;stroke:none;stroke-width:4.63635;stroke-miterlimit:4;stroke-dasharray:none;stroke-dashoffset:0;stroke-opacity:0.342425"
       id="rect940"
       width="16.030865"
       height="3.6384964"
       x="83.936897"
       y="343.37686" />
    <rect
       style="fill:#000000;fill-opacity:0.341176;stroke:none;stroke-width:5.25279;stroke-miterlimit:4;stroke-dasharray:none;stroke-dashoffset:0;stroke-opacity:0.342425"
       id="rect942"
       width="16.030865"
       height="4.6703329"
       x="148.62733"
       y="-318.87363"
       transform="rotate(140.71013)" />
    <path
       id="path944"
       style="fill:#000000;fill-opacity:0.341176;stroke:none;stroke-width:5.25279;stroke-miterlimit:4;stroke-dasharray:none;stroke-dashoffset:0;stroke-opacity:0.342425"
       d="m 112.37488,336.86391 -12.407117,10.15145 -2.95746,-3.61461 12.407117,-10.15145 2.99735,0.007 z"
       sodipodi:nodetypes="cccccc" />
    <path
       style="fill:none;stroke:#ffffff;stroke-width:0.264583px;stroke-linecap:butt;stroke-linejoin:miter;stroke-opacity:1"
       d="m 72.347928,341.52696 8.822755,10.83962"
       id="path946" />
    <ellipse
       style="fill:none;fill-opacity:0.842943;stroke:#000000;stroke-width:0.801347;stroke-miterlimit:4;stroke-dasharray:none;stroke-dashoffset:0;stroke-opacity:0.342425"
       id="circle924-7"
       cx="93.358971"
       cy="355.96545"
       rx="10.871566"
       ry="9.852747"
       transform="matrix(0.98865268,-0.15021941,0,1,0,0)" />
    <path
       style="fill:none;fill-opacity:0.842943;stroke:#000000;stroke-width:0.273;stroke-miterlimit:4;stroke-dasharray:none;stroke-dashoffset:0;stroke-opacity:0.342425"
       id="circle999"
       sodipodi:type="arc"
       sodipodi:cx="45.284618"
       sodipodi:cy="314.49103"
       sodipodi:rx="12.4862"
       sodipodi:ry="12.4862"
       sodipodi:start="3.890156"
       sodipodi:end="6.033746"
       sodipodi:arc-type="arc"
       d="m 36.136387,305.99308 a 12.4862,12.4862 0 0 1 12.232068,-3.60144 12.4862,12.4862 0 0 1 9.015928,9.01704"
       sodipodi:open="true" />
    <rect
       style="fill:#00aad4;fill-opacity:0.842943;stroke:none;stroke-width:4.69629;stroke-miterlimit:4;stroke-dasharray:none;stroke-dashoffset:0;stroke-opacity:0.342425"
       id="rect1001"
       width="16.030865"
       height="3.7331691"
       x="37.538227"
       y="308.10178" />
    <rect
       style="fill:#00aad4;fill-opacity:0.842943;stroke:none;stroke-width:4.63635;stroke-miterlimit:4;stroke-dasharray:none;stroke-dashoffset:0;stroke-opacity:0.342425"
       id="rect1003"
       width="16.030865"
       height="3.6384964"
       x="37.538227"
       y="316.8288" />
    <rect
       style="fill:#000000;fill-opacity:0.341176;stroke:none;stroke-width:5.25279;stroke-miterlimit:4;stroke-dasharray:none;stroke-dashoffset:0;stroke-opacity:0.342425"
       id="rect1005"
       width="16.030865"
       height="4.6703329"
       x="166.0508"
       y="-266.89725"
       transform="rotate(140.71013)" />
    <path
       id="path1007"
       style="fill:#000000;fill-opacity:0.341176;stroke:none;stroke-width:5.25279;stroke-miterlimit:4;stroke-dasharray:none;stroke-dashoffset:0;stroke-opacity:0.342425"
       d="m 65.976214,310.31583 -12.40712,10.15145 -2.95746,-3.61461 12.40712,-10.15145 2.99735,0.007 z"
       sodipodi:nodetypes="cccccc" />
    <path
       style="fill:none;fill-opacity:0.842943;stroke:#000000;stroke-width:0.273;stroke-miterlimit:4;stroke-dasharray:none;stroke-dashoffset:0;stroke-opacity:0.342425"
       id="path1011"
       sodipodi:type="arc"
       sodipodi:cx="45.284618"
       sodipodi:cy="314.49103"
       sodipodi:rx="12.4862"
       sodipodi:ry="12.4862"
       sodipodi:start="0.66493132"
       sodipodi:end="2.8832923"
       sodipodi:arc-type="arc"
       d="m 55.110748,322.19508 a 12.4862,12.4862 0 0 1 -12.347314,4.52496 12.4862,12.4862 0 0 1 -9.550793,-9.03957"
       sodipodi:open="true" />
    <path
       style="fill:none;fill-opacity:0.842943;stroke:#ffffff;stroke-width:0.273;stroke-miterlimit:4;stroke-dasharray:none;stroke-dashoffset:0;stroke-opacity:0.9986586"
       id="path1013"
       sodipodi:type="arc"
       sodipodi:cx="45.284618"
       sodipodi:cy="314.49103"
       sodipodi:rx="12.4862"
       sodipodi:ry="12.4862"
       sodipodi:start="2.8844883"
       sodipodi:end="3.4682368"
       sodipodi:arc-type="arc"
       d="m 33.208835,317.66603 a 12.4862,12.4862 0 0 1 0.249798,-7.1814"
       sodipodi:open="true" />
    <path
       style="fill:none;fill-opacity:0.842943;stroke:#000000;stroke-width:0.273;stroke-linecap:round;stroke-miterlimit:4;stroke-dasharray:none;stroke-dashoffset:0;stroke-opacity:0.342425"
       id="path1015"
       sodipodi:type="arc"
       sodipodi:cx="38.971428"
       sodipodi:cy="347.29901"
       sodipodi:rx="12.4862"
       sodipodi:ry="12.4862"
       sodipodi:start="3.890156"
       sodipodi:end="5.7663772"
       sodipodi:arc-type="arc"
       d="m 29.823196,338.80107 a 12.4862,12.4862 0 0 1 10.591867,-3.90452 12.4862,12.4862 0 0 1 9.411877,6.23293"
       sodipodi:open="true"
       inkscape:export-xdpi="599.64624"
       inkscape:export-ydpi="599.64624" />
    <rect
       style="fill:#00aad4;fill-opacity:0.842943;stroke:none;stroke-width:4.69629;stroke-miterlimit:4;stroke-dasharray:none;stroke-dashoffset:0;stroke-opacity:0.342425"
       id="rect1017"
       width="16.030865"
       height="3.7331691"
       x="31.225037"
       y="340.90976"
       inkscape:export-xdpi="599.64624"
       inkscape:export-ydpi="599.64624" />
    <rect
       style="fill:#00aad4;fill-opacity:0.842943;stroke:none;stroke-width:4.63635;stroke-miterlimit:4;stroke-dasharray:none;stroke-dashoffset:0;stroke-opacity:0.342425"
       id="rect1019"
       width="16.030865"
       height="3.6384964"
       x="31.225037"
       y="350.16595"
       inkscape:export-xdpi="599.64624"
       inkscape:export-ydpi="599.64624" />
    <path
       id="path1023"
       style="fill:#000000;fill-opacity:0.341176;stroke:none;stroke-width:5.25279;stroke-miterlimit:4;stroke-dasharray:none;stroke-dashoffset:0;stroke-opacity:0.342425"
       d="m 57.319525,341.32597 -10.063622,12.47846 -4.69373,-3.46104 10.063622,-12.47846 3.464344,-0.0782 z"
       sodipodi:nodetypes="cccccc"
       inkscape:export-xdpi="599.64624"
       inkscape:export-ydpi="599.64624" />
    <path
       style="fill:none;fill-opacity:0.842943;stroke:#000000;stroke-width:0.273;stroke-miterlimit:4;stroke-dasharray:none;stroke-dashoffset:0;stroke-opacity:0.342425"
       id="path1025"
       sodipodi:type="arc"
       sodipodi:cx="38.971428"
       sodipodi:cy="347.29901"
       sodipodi:rx="12.4862"
       sodipodi:ry="12.4862"
       sodipodi:start="0.66493132"
       sodipodi:end="2.5973168"
       sodipodi:arc-type="arc"
       d="m 48.797558,355.00306 a 12.4862,12.4862 0 0 1 -10.578937,4.75944 12.4862,12.4862 0 0 1 -9.929168,-5.99815"
       sodipodi:open="true"
       inkscape:export-xdpi="599.64624"
       inkscape:export-ydpi="599.64624" />
    <path
       id="path1031"
       style="fill:#000000;fill-opacity:0.341176;stroke:none;stroke-width:5.25279;stroke-miterlimit:4;stroke-dasharray:none;stroke-dashoffset:0;stroke-opacity:0.342425"
       d="m 21.161415,353.38822 10.063622,-12.47846 4.69373,3.46104 -10.063622,12.47846 -1.347677,-3.0968 z"
       sodipodi:nodetypes="cccccc"
       inkscape:export-xdpi="599.64624"
       inkscape:export-ydpi="599.64624" />
    <path
       style="fill:none;fill-opacity:0.842943;stroke:#ffffff;stroke-width:0.273;stroke-miterlimit:4;stroke-dasharray:none;stroke-dashoffset:0;stroke-opacity:0.998659"
       id="path1027"
       sodipodi:type="arc"
       sodipodi:cx="38.971428"
       sodipodi:cy="347.29901"
       sodipodi:rx="12.4862"
       sodipodi:ry="12.4862"
       sodipodi:start="2.5988066"
       sodipodi:end="3.4682368"
       sodipodi:arc-type="arc"
       d="m 28.279832,353.74843 a 12.4862,12.4862 0 0 1 -1.13439,-10.45582"
       sodipodi:open="true"
       inkscape:export-xdpi="599.64624"
       inkscape:export-ydpi="599.64624" />
    <g
       aria-label="ASTR  GEN"
       id="text887"
       style="font-style:normal;font-weight:normal;font-size:4.94569px;line-height:1.25;font-family:sans-serif;fill:#000000;fill-opacity:1;stroke:none;stroke-width:0.123642"
       transform="translate(-2.7270905,-8.3626345)">
      <path
         d="m 29.047154,372.18786 -0.328425,0.9249 h -0.514371 l 1.352957,-3.5082 -0.255701,-0.0978 0.555735,5.6e-4 h 0.276504 l 1.374072,3.60542 h -0.507127 l -0.328425,-0.9249 -0.152137,-0.4057 -0.664095,-1.79426 -0.661679,1.79426"
         style="stroke-width:0.123642"
         id="path891"
         sodipodi:nodetypes="ccccccccccccc" />
      <path
         d="m 33.302726,369.62566 v 0.47574 c -0.185141,-0.0885 -0.359818,-0.15455 -0.524031,-0.19802 -0.164212,-0.0435 -0.322789,-0.0652 -0.475733,-0.0652 -0.265637,0 -0.470902,0.0515 -0.615796,0.15456 -0.143283,0.10303 -0.214925,0.24954 -0.214925,0.43951 0,0.15938 0.04749,0.28012 0.142478,0.36223 0.0966,0.0805 0.278518,0.1457 0.545765,0.19561 l 0.294616,0.0604 c 0.363844,0.0692 0.631896,0.19158 0.804158,0.36706 0.173872,0.17387 0.260808,0.40731 0.260808,0.70032 0,0.34935 -0.117524,0.61419 -0.352574,0.7945 -0.233439,0.18031 -0.576353,0.27046 -1.028742,0.27046 -0.170652,0 -0.352573,-0.0193 -0.545765,-0.058 -0.25304,-0.006 -0.291051,-0.0165 -0.497122,-0.0921 l -0.09935,-0.58164 c 0.198021,0.11109 0.392017,0.1948 0.581988,0.25115 0.189972,0.0563 0.376723,0.0845 0.560254,0.0845 0.278517,0 0.493442,-0.0547 0.644775,-0.16421 0.151333,-0.10947 0.226999,-0.26564 0.226999,-0.46849 0,-0.17709 -0.05474,-0.31555 -0.164212,-0.41536 -0.107864,-0.0998 -0.285761,-0.17467 -0.53369,-0.22458 l -0.297031,-0.058 c -0.363843,-0.0725 -0.627066,-0.18595 -0.789669,-0.3405 -0.162602,-0.15455 -0.243903,-0.36948 -0.243903,-0.64477 0,-0.31877 0.11189,-0.56992 0.335669,-0.75345 0.22539,-0.18353 0.5353,-0.2753 0.929732,-0.2753 0.169042,0 0.341304,0.0153 0.516786,0.0459 0.175482,0.0306 0.562515,-0.0543 0.53852,0.13764 z"
         style="stroke-width:0.123642"
         id="path893"
         sodipodi:nodetypes="ccsscsccccscscccsssscccsscsssc" />
      <path
         d="m 33.453812,369.50734 h 3.050003 v 0.41053 h -1.27989 v 3.19489 h -0.490222 v -3.19489 h -1.279891 z"
         style="stroke-width:0.123642"
         id="path895"
         sodipodi:nodetypes="ccccccccc" />
      <path
         d="m 38.237144,371.42234 q 0.156968,0.0531 0.304276,0.227 0.149723,0.17387 0.299446,0.47815 l 0.495052,0.98527 h -0.52403 l -0.461244,-0.9249 q -0.178702,-0.36223 -0.347744,-0.48056 -0.166627,-0.11833 -0.456414,-0.11833 h -0.531275 v 1.52379 h -0.487807 v -3.60542 h 1.101189 q 0.618211,0 0.922487,0.25839 0.304276,0.25839 0.304276,0.78001 0,0.3405 -0.159383,0.56508 -0.156968,0.22459 -0.458829,0.31152 z m -1.221933,-1.51413 v 1.27989 h 0.613382 q 0.352573,0 0.531275,-0.1618 0.181116,-0.16421 0.181116,-0.48056 0,-0.31635 -0.181116,-0.47574 -0.178702,-0.16179 -0.531275,-0.16179 z"
         style="stroke-width:0.123642"
         id="path897" />
      <path
         d="m 46.095497,372.59839 v -0.96837 h -0.796913 v -0.40087 h 1.27989 v 1.54794 c -0.188362,0.13363 -0.396042,0.23505 -0.623041,0.30428 -0.227,0.0676 -0.469293,0.10142 -0.726881,0.10142 -0.563474,0 -1.004594,-0.16421 -1.323359,-0.49263 -0.317155,-0.33003 -0.475732,-0.78886 -0.475732,-1.37649 0,-0.58923 0.158577,-1.04806 0.475732,-1.37648 0.318765,-0.33004 0.759885,-0.49506 1.323359,-0.49506 0.235049,0 0.458024,0.029 0.668924,0.0869 0.21251,0.0579 0.408116,0.14326 0.586818,0.25598 v 0.5192 c -0.180312,-0.15295 -0.371894,-0.26806 -0.574744,-0.34533 -0.202851,-0.0773 -0.416166,-0.11592 -0.639945,-0.11592 -0.44112,0 -0.772764,0.12316 -0.994934,0.36948 -0.22056,0.24632 -0.330839,0.61338 -0.330839,1.10119 0,0.4862 0.110279,0.85246 0.330839,1.09877 0.22217,0.24632 0.553814,0.36948 0.994934,0.36948 0.172262,0 0.32601,-0.0145 0.461244,-0.0435 0.135233,-0.0306 0.256782,-0.0773 0.364648,-0.14006 z"
         style="stroke-width:0.123642"
         id="path899"
         sodipodi:nodetypes="cccccccscssscccsscscsccc" />
      <path
         d="m 47.998734,369.50734 h 2.279654 v 0.41053 h -1.791847 v 1.06738 h 1.716986 v 0.41053 h -1.716986 v 1.30645 h 1.835315 v 0.41053 h -2.323122 z"
         style="stroke-width:0.123642"
         id="path901"
         sodipodi:nodetypes="ccccccccccccc" />
      <path
         d="m 51.652765,369.50734 h 0.656849 l 1.598656,3.01619 v -3.01619 h 0.473318 v 3.60542 h -0.65685 l -1.598655,-3.01619 v 3.01619 h -0.473318 z"
         style="stroke-width:0.123642"
         id="path903"
         sodipodi:nodetypes="ccccccccccc" />
    </g>
    <circle
       style="fill:#ffffff;fill-opacity:0.341176;stroke:#000000;stroke-width:0.47621;stroke-linecap:round;stroke-miterlimit:4;stroke-dasharray:none;stroke-opacity:0.998659"
       id="path889"
       cx="38.363079"
       cy="362.94003"
       r="1.6385105" />
  </g>
</svg>
